<svg width="186" height="24" viewBox="0 0 186 24" fill="none" xmlns="http://www.w3.org/2000/svg">
<line x1="1.25632" y1="22.7437" x2="33.1841" y2="22.7437" stroke="#58ACC7" stroke-width="2.51264" stroke-linecap="round"/>
<mask id="path-2-inside-1_614_16" fill="white">
<rect x="11.0458" width="12.3466" height="24" rx="0.866426"/>
</mask>
<rect x="11.0458" width="12.3466" height="24" rx="0.866426" stroke="#58ACC7" stroke-width="5.02527" mask="url(#path-2-inside-1_614_16)"/>
<mask id="path-3-inside-2_614_16" fill="white">
<rect x="3.8125" y="10.225" width="9.74729" height="13.7762" rx="0.866426"/>
</mask>
<rect x="3.8125" y="10.225" width="9.74729" height="13.7762" rx="0.866426" stroke="#58ACC7" stroke-width="5.02527" mask="url(#path-3-inside-2_614_16)"/>
<mask id="path-4-inside-3_614_16" fill="white">
<rect x="20.8792" y="10.225" width="9.66065" height="13.7762" rx="0.866426"/>
</mask>
<rect x="20.8792" y="10.225" width="9.66065" height="13.7762" rx="0.866426" stroke="#58ACC7" stroke-width="5.02527" mask="url(#path-4-inside-3_614_16)"/>
<line x1="17.0248" y1="5.41654" x2="17.0248" y2="7.58261" stroke="#58ACC7" stroke-width="1.29964" stroke-linecap="round"/>
<line x1="18.6751" y1="7.66654" x2="17.0238" y2="7.66654" stroke="#58ACC7" stroke-width="1.29964" stroke-linecap="round"/>
<path d="M41.7844 7.88H38.5524V5.672H47.5124V7.88H44.2804V17H41.7844V7.88ZM60.8813 11.144H58.7693V13.736C58.7693 13.9493 58.78 14.1467 58.8013 14.328C58.8226 14.4987 58.8706 14.648 58.9453 14.776C59.02 14.904 59.132 15.0053 59.2813 15.08C59.4413 15.144 59.6493 15.176 59.9053 15.176C60.0333 15.176 60.1986 15.1653 60.4013 15.144C60.6146 15.112 60.7746 15.048 60.8813 14.952V16.952C60.6146 17.048 60.3373 17.112 60.0493 17.144C59.7613 17.176 59.4786 17.192 59.2013 17.192C58.796 17.192 58.4226 17.1493 58.0813 17.064C57.74 16.9787 57.4413 16.8453 57.1853 16.664C56.9293 16.472 56.7266 16.2267 56.5773 15.928C56.4386 15.6293 56.3693 15.2667 56.3693 14.84V11.144H54.8333V9.224H56.3693V6.92H58.7693V9.224H60.8813V11.144ZM69.4609 15.656C69.0769 16.1467 68.5916 16.5253 68.0049 16.792C67.4183 17.0587 66.8103 17.192 66.1809 17.192C65.5836 17.192 65.0183 17.096 64.4849 16.904C63.9623 16.712 63.5036 16.44 63.1089 16.088C62.7249 15.7253 62.4209 15.2933 62.1969 14.792C61.9729 14.2907 61.8609 13.7307 61.8609 13.112C61.8609 12.4933 61.9729 11.9333 62.1969 11.432C62.4209 10.9307 62.7249 10.504 63.1089 10.152C63.5036 9.78933 63.9623 9.512 64.4849 9.32C65.0183 9.128 65.5836 9.032 66.1809 9.032C66.7356 9.032 67.2369 9.128 67.6849 9.32C68.1436 9.512 68.5276 9.78933 68.8369 10.152C69.1569 10.504 69.4023 10.9307 69.5729 11.432C69.7436 11.9333 69.8289 12.4933 69.8289 13.112V13.864H64.2609C64.3569 14.3227 64.5649 14.6907 64.8849 14.968C65.2049 15.2347 65.5996 15.368 66.0689 15.368C66.4636 15.368 66.7943 15.2827 67.0609 15.112C67.3383 14.9307 67.5783 14.7013 67.7809 14.424L69.4609 15.656ZM67.4289 12.232C67.4396 11.8267 67.3063 11.48 67.0289 11.192C66.7516 10.904 66.3943 10.76 65.9569 10.76C65.6903 10.76 65.4556 10.8027 65.2529 10.888C65.0503 10.9733 64.8743 11.0853 64.7249 11.224C64.5863 11.352 64.4743 11.5067 64.3889 11.688C64.3143 11.8587 64.2716 12.04 64.2609 12.232H67.4289ZM76.5524 11.736C76.4351 11.5653 76.2698 11.4267 76.0564 11.32C75.8431 11.2027 75.6138 11.144 75.3684 11.144C74.7604 11.144 74.2858 11.3253 73.9444 11.688C73.6138 12.0507 73.4484 12.5253 73.4484 13.112C73.4484 13.6987 73.6138 14.1733 73.9444 14.536C74.2858 14.8987 74.7604 15.08 75.3684 15.08C75.6351 15.08 75.8644 15.0213 76.0564 14.904C76.2484 14.7867 76.4138 14.648 76.5524 14.488L78.1364 16.152C77.7631 16.536 77.3204 16.808 76.8084 16.968C76.3071 17.1173 75.8271 17.192 75.3684 17.192C74.7711 17.192 74.2058 17.096 73.6724 16.904C73.1498 16.712 72.6911 16.44 72.2964 16.088C71.9124 15.7253 71.6084 15.2933 71.3844 14.792C71.1604 14.2907 71.0484 13.7307 71.0484 13.112C71.0484 12.4933 71.1604 11.9333 71.3844 11.432C71.6084 10.9307 71.9124 10.504 72.2964 10.152C72.6911 9.78933 73.1498 9.512 73.6724 9.32C74.2058 9.128 74.7711 9.032 75.3684 9.032C75.8271 9.032 76.3071 9.112 76.8084 9.272C77.3204 9.42133 77.7631 9.688 78.1364 10.072L76.5524 11.736ZM81.4072 4.904V10.28H81.4392C81.4925 10.1307 81.5832 9.98133 81.7112 9.832C81.8392 9.68267 81.9938 9.54933 82.1752 9.432C82.3565 9.31467 82.5698 9.21867 82.8152 9.144C83.0605 9.06933 83.3272 9.032 83.6152 9.032C84.2232 9.032 84.7138 9.128 85.0872 9.32C85.4605 9.50133 85.7485 9.75733 85.9512 10.088C86.1645 10.4187 86.3085 10.808 86.3832 11.256C86.4578 11.704 86.4952 12.1893 86.4952 12.712V17H84.0952V13.192C84.0952 12.968 84.0845 12.7387 84.0632 12.504C84.0525 12.2587 84.0045 12.0347 83.9192 11.832C83.8445 11.6293 83.7218 11.464 83.5512 11.336C83.3912 11.208 83.1565 11.144 82.8472 11.144C82.5378 11.144 82.2872 11.2027 82.0952 11.32C81.9032 11.4267 81.7538 11.576 81.6472 11.768C81.5512 11.9493 81.4872 12.1573 81.4552 12.392C81.4232 12.6267 81.4072 12.872 81.4072 13.128V17H79.0072V4.904H81.4072ZM96.961 5.672H99.025L103.953 17H101.137L100.161 14.6H95.761L94.817 17H92.065L96.961 5.672ZM97.921 8.968L96.545 12.488H99.313L97.921 8.968ZM105.012 9.224H107.22V10.248H107.252C107.348 10.1093 107.471 9.97067 107.62 9.832C107.78 9.68267 107.962 9.54933 108.164 9.432C108.378 9.31467 108.607 9.21867 108.852 9.144C109.098 9.06933 109.359 9.032 109.636 9.032C110.212 9.032 110.735 9.13333 111.204 9.336C111.674 9.528 112.074 9.80533 112.404 10.168C112.746 10.52 113.007 10.9413 113.188 11.432C113.37 11.9227 113.46 12.4613 113.46 13.048C113.46 13.592 113.375 14.1147 113.204 14.616C113.044 15.1067 112.81 15.544 112.5 15.928C112.202 16.312 111.834 16.6213 111.396 16.856C110.959 17.08 110.463 17.192 109.908 17.192C109.407 17.192 108.938 17.1173 108.5 16.968C108.074 16.808 107.722 16.5413 107.444 16.168H107.412V20.648H105.012V9.224ZM107.22 13.112C107.22 13.6987 107.386 14.1733 107.716 14.536C108.058 14.8987 108.532 15.08 109.14 15.08C109.748 15.08 110.218 14.8987 110.548 14.536C110.89 14.1733 111.06 13.6987 111.06 13.112C111.06 12.5253 110.89 12.0507 110.548 11.688C110.218 11.3253 109.748 11.144 109.14 11.144C108.532 11.144 108.058 11.3253 107.716 11.688C107.386 12.0507 107.22 12.5253 107.22 13.112ZM115.091 9.224H117.299V10.248H117.331C117.427 10.1093 117.549 9.97067 117.699 9.832C117.859 9.68267 118.04 9.54933 118.243 9.432C118.456 9.31467 118.685 9.21867 118.931 9.144C119.176 9.06933 119.437 9.032 119.715 9.032C120.291 9.032 120.813 9.13333 121.283 9.336C121.752 9.528 122.152 9.80533 122.483 10.168C122.824 10.52 123.085 10.9413 123.267 11.432C123.448 11.9227 123.539 12.4613 123.539 13.048C123.539 13.592 123.453 14.1147 123.283 14.616C123.123 15.1067 122.888 15.544 122.579 15.928C122.28 16.312 121.912 16.6213 121.475 16.856C121.037 17.08 120.541 17.192 119.987 17.192C119.485 17.192 119.016 17.1173 118.579 16.968C118.152 16.808 117.8 16.5413 117.523 16.168H117.491V20.648H115.091V9.224ZM117.299 13.112C117.299 13.6987 117.464 14.1733 117.795 14.536C118.136 14.8987 118.611 15.08 119.219 15.08C119.827 15.08 120.296 14.8987 120.627 14.536C120.968 14.1733 121.139 13.6987 121.139 13.112C121.139 12.5253 120.968 12.0507 120.627 11.688C120.296 11.3253 119.827 11.144 119.219 11.144C118.611 11.144 118.136 11.3253 117.795 11.688C117.464 12.0507 117.299 12.5253 117.299 13.112ZM129.983 5.672H134.191C134.778 5.672 135.332 5.72533 135.855 5.832C136.378 5.93867 136.831 6.12533 137.215 6.392C137.61 6.648 137.919 7 138.143 7.448C138.378 7.88533 138.495 8.44 138.495 9.112C138.495 9.77333 138.388 10.328 138.175 10.776C137.962 11.224 137.668 11.5813 137.295 11.848C136.922 12.1147 136.479 12.3067 135.967 12.424C135.455 12.5307 134.9 12.584 134.303 12.584H132.479V17H129.983V5.672ZM132.479 10.472H134.143C134.367 10.472 134.58 10.4507 134.783 10.408C134.996 10.3653 135.183 10.296 135.343 10.2C135.514 10.0933 135.647 9.95467 135.743 9.784C135.85 9.60267 135.903 9.37867 135.903 9.112C135.903 8.824 135.834 8.59467 135.695 8.424C135.567 8.24267 135.396 8.104 135.183 8.008C134.98 7.912 134.751 7.85333 134.495 7.832C134.239 7.8 133.994 7.784 133.759 7.784H132.479V10.472ZM139.757 9.224H142.157V10.472H142.189C142.445 9.992 142.749 9.63467 143.101 9.4C143.453 9.15467 143.896 9.032 144.429 9.032C144.568 9.032 144.707 9.03733 144.845 9.048C144.984 9.05867 145.112 9.08 145.229 9.112V11.304C145.059 11.2507 144.888 11.2133 144.717 11.192C144.557 11.16 144.387 11.144 144.205 11.144C143.747 11.144 143.384 11.208 143.117 11.336C142.851 11.464 142.643 11.6453 142.493 11.88C142.355 12.104 142.264 12.376 142.221 12.696C142.179 13.016 142.157 13.368 142.157 13.752V17H139.757V9.224ZM145.704 13.112C145.704 12.4933 145.816 11.9333 146.04 11.432C146.264 10.9307 146.568 10.504 146.952 10.152C147.346 9.78933 147.805 9.512 148.328 9.32C148.861 9.128 149.426 9.032 150.024 9.032C150.621 9.032 151.181 9.128 151.704 9.32C152.237 9.512 152.696 9.78933 153.08 10.152C153.474 10.504 153.784 10.9307 154.008 11.432C154.232 11.9333 154.344 12.4933 154.344 13.112C154.344 13.7307 154.232 14.2907 154.008 14.792C153.784 15.2933 153.474 15.7253 153.08 16.088C152.696 16.44 152.237 16.712 151.704 16.904C151.181 17.096 150.621 17.192 150.024 17.192C149.426 17.192 148.861 17.096 148.328 16.904C147.805 16.712 147.346 16.44 146.952 16.088C146.568 15.7253 146.264 15.2933 146.04 14.792C145.816 14.2907 145.704 13.7307 145.704 13.112ZM148.104 13.112C148.104 13.6987 148.269 14.1733 148.6 14.536C148.941 14.8987 149.416 15.08 150.024 15.08C150.632 15.08 151.101 14.8987 151.432 14.536C151.773 14.1733 151.944 13.6987 151.944 13.112C151.944 12.5253 151.773 12.0507 151.432 11.688C151.101 11.3253 150.632 11.144 150.024 11.144C149.416 11.144 148.941 11.3253 148.6 11.688C148.269 12.0507 148.104 12.5253 148.104 13.112ZM158.189 17.576C158.189 18.0773 158.141 18.5253 158.045 18.92C157.949 19.3253 157.789 19.6667 157.565 19.944C157.341 20.232 157.042 20.4507 156.669 20.6C156.306 20.76 155.853 20.84 155.309 20.84C155.128 20.84 154.941 20.8293 154.749 20.808C154.557 20.7973 154.37 20.7653 154.189 20.712L154.317 18.584C154.509 18.68 154.717 18.728 154.941 18.728C155.144 18.728 155.304 18.6747 155.421 18.568C155.538 18.4613 155.624 18.328 155.677 18.168C155.73 18.008 155.762 17.8373 155.773 17.656C155.784 17.4747 155.789 17.3093 155.789 17.16V9.224H158.189V17.576ZM155.597 6.776C155.597 6.392 155.73 6.06667 155.997 5.8C156.274 5.52267 156.605 5.384 156.989 5.384C157.373 5.384 157.698 5.52267 157.965 5.8C158.242 6.06667 158.381 6.392 158.381 6.776C158.381 7.16 158.242 7.49067 157.965 7.768C157.698 8.03467 157.373 8.168 156.989 8.168C156.605 8.168 156.274 8.03467 155.997 7.768C155.73 7.49067 155.597 7.16 155.597 6.776ZM167.273 15.656C166.889 16.1467 166.404 16.5253 165.817 16.792C165.231 17.0587 164.623 17.192 163.993 17.192C163.396 17.192 162.831 17.096 162.297 16.904C161.775 16.712 161.316 16.44 160.921 16.088C160.537 15.7253 160.233 15.2933 160.009 14.792C159.785 14.2907 159.673 13.7307 159.673 13.112C159.673 12.4933 159.785 11.9333 160.009 11.432C160.233 10.9307 160.537 10.504 160.921 10.152C161.316 9.78933 161.775 9.512 162.297 9.32C162.831 9.128 163.396 9.032 163.993 9.032C164.548 9.032 165.049 9.128 165.497 9.32C165.956 9.512 166.34 9.78933 166.649 10.152C166.969 10.504 167.215 10.9307 167.385 11.432C167.556 11.9333 167.641 12.4933 167.641 13.112V13.864H162.073C162.169 14.3227 162.377 14.6907 162.697 14.968C163.017 15.2347 163.412 15.368 163.881 15.368C164.276 15.368 164.607 15.2827 164.873 15.112C165.151 14.9307 165.391 14.7013 165.593 14.424L167.273 15.656ZM165.241 12.232C165.252 11.8267 165.119 11.48 164.841 11.192C164.564 10.904 164.207 10.76 163.769 10.76C163.503 10.76 163.268 10.8027 163.065 10.888C162.863 10.9733 162.687 11.0853 162.537 11.224C162.399 11.352 162.287 11.5067 162.201 11.688C162.127 11.8587 162.084 12.04 162.073 12.232H165.241ZM174.365 11.736C174.248 11.5653 174.082 11.4267 173.869 11.32C173.656 11.2027 173.426 11.144 173.181 11.144C172.573 11.144 172.098 11.3253 171.757 11.688C171.426 12.0507 171.261 12.5253 171.261 13.112C171.261 13.6987 171.426 14.1733 171.757 14.536C172.098 14.8987 172.573 15.08 173.181 15.08C173.448 15.08 173.677 15.0213 173.869 14.904C174.061 14.7867 174.226 14.648 174.365 14.488L175.949 16.152C175.576 16.536 175.133 16.808 174.621 16.968C174.12 17.1173 173.64 17.192 173.181 17.192C172.584 17.192 172.018 17.096 171.485 16.904C170.962 16.712 170.504 16.44 170.109 16.088C169.725 15.7253 169.421 15.2933 169.197 14.792C168.973 14.2907 168.861 13.7307 168.861 13.112C168.861 12.4933 168.973 11.9333 169.197 11.432C169.421 10.9307 169.725 10.504 170.109 10.152C170.504 9.78933 170.962 9.512 171.485 9.32C172.018 9.128 172.584 9.032 173.181 9.032C173.64 9.032 174.12 9.112 174.621 9.272C175.133 9.42133 175.576 9.688 175.949 10.072L174.365 11.736ZM182.116 11.144H180.004V13.736C180.004 13.9493 180.014 14.1467 180.036 14.328C180.057 14.4987 180.105 14.648 180.18 14.776C180.254 14.904 180.366 15.0053 180.516 15.08C180.676 15.144 180.884 15.176 181.14 15.176C181.268 15.176 181.433 15.1653 181.636 15.144C181.849 15.112 182.009 15.048 182.116 14.952V16.952C181.849 17.048 181.572 17.112 181.284 17.144C180.996 17.176 180.713 17.192 180.436 17.192C180.03 17.192 179.657 17.1493 179.316 17.064C178.974 16.9787 178.676 16.8453 178.42 16.664C178.164 16.472 177.961 16.2267 177.812 15.928C177.673 15.6293 177.604 15.2667 177.604 14.84V11.144H176.068V9.224H177.604V6.92H180.004V9.224H182.116V11.144Z" fill="#58ACC7"/>
<path d="M52.3799 13.256H49.9799V5.672H52.3799V13.256ZM49.7079 15.624C49.7079 15.4213 49.7453 15.2293 49.8199 15.048C49.8946 14.8667 49.9959 14.712 50.1239 14.584C50.2626 14.4453 50.4226 14.3387 50.6039 14.264C50.7853 14.1893 50.9773 14.152 51.1799 14.152C51.3826 14.152 51.5746 14.1893 51.7559 14.264C51.9373 14.3387 52.0919 14.4453 52.2199 14.584C52.3586 14.712 52.4653 14.8667 52.5399 15.048C52.6146 15.2293 52.6519 15.4213 52.6519 15.624C52.6519 15.8267 52.6146 16.0187 52.5399 16.2C52.4653 16.3813 52.3586 16.5413 52.2199 16.68C52.0919 16.808 51.9373 16.9093 51.7559 16.984C51.5746 17.0587 51.3826 17.096 51.1799 17.096C50.9773 17.096 50.7853 17.0587 50.6039 16.984C50.4226 16.9093 50.2626 16.808 50.1239 16.68C49.9959 16.5413 49.8946 16.3813 49.8199 16.2C49.7453 16.0187 49.7079 15.8267 49.7079 15.624Z" fill="#E5A894"/>
</svg>
