<svg width="20" height="21" viewBox="0 0 20 21" fill="none" xmlns="http://www.w3.org/2000/svg">
<path d="M9.99166 2.16675C5.39166 2.16675 1.66666 5.90008 1.66666 10.5001C1.66666 15.1001 5.39166 18.8334 9.99166 18.8334C14.6 18.8334 18.3333 15.1001 18.3333 10.5001C18.3333 5.90008 14.6 2.16675 9.99166 2.16675ZM15.7667 7.16675H13.3083C13.0417 6.12508 12.6583 5.12508 12.1583 4.20008C13.6917 4.72508 14.9667 5.79175 15.7667 7.16675ZM9.99999 3.86675C10.6917 4.86675 11.2333 5.97508 11.5917 7.16675H8.40832C8.76666 5.97508 9.30832 4.86675 9.99999 3.86675ZM3.54999 12.1667C3.41666 11.6334 3.33332 11.0751 3.33332 10.5001C3.33332 9.92508 3.41666 9.36675 3.54999 8.83341H6.36666C6.29999 9.38341 6.24999 9.93341 6.24999 10.5001C6.24999 11.0667 6.29999 11.6167 6.36666 12.1667H3.54999ZM4.23332 13.8334H6.69166C6.95832 14.8751 7.34166 15.8751 7.84166 16.8001C6.30832 16.2751 5.03332 15.2167 4.23332 13.8334ZM6.69166 7.16675H4.23332C5.03332 5.78341 6.30832 4.72508 7.84166 4.20008C7.34166 5.12508 6.95832 6.12508 6.69166 7.16675ZM9.99999 17.1334C9.30832 16.1334 8.76666 15.0251 8.40832 13.8334H11.5917C11.2333 15.0251 10.6917 16.1334 9.99999 17.1334ZM11.95 12.1667H8.04999C7.97499 11.6167 7.91666 11.0667 7.91666 10.5001C7.91666 9.93341 7.97499 9.37508 8.04999 8.83341H11.95C12.025 9.37508 12.0833 9.93341 12.0833 10.5001C12.0833 11.0667 12.025 11.6167 11.95 12.1667ZM12.1583 16.8001C12.6583 15.8751 13.0417 14.8751 13.3083 13.8334H15.7667C14.9667 15.2084 13.6917 16.2751 12.1583 16.8001ZM13.6333 12.1667C13.7 11.6167 13.75 11.0667 13.75 10.5001C13.75 9.93341 13.7 9.38341 13.6333 8.83341H16.45C16.5833 9.36675 16.6667 9.92508 16.6667 10.5001C16.6667 11.0751 16.5833 11.6334 16.45 12.1667H13.6333Z" fill="#58ACC7"/>
</svg>
