<svg width="1741" height="226" viewBox="0 0 1741 226" fill="none" xmlns="http://www.w3.org/2000/svg">
<line x1="11.778" y1="213.222" x2="311.101" y2="213.222" stroke="white" stroke-width="23.556" stroke-linecap="round"/>
<mask id="path-2-inside-1_17_122" fill="white">
<rect x="103.555" width="115.749" height="225" rx="8.12274"/>
</mask>
<rect x="103.555" width="115.749" height="225" rx="8.12274" stroke="white" stroke-width="47.1119" mask="url(#path-2-inside-1_17_122)"/>
<mask id="path-3-inside-2_17_122" fill="white">
<rect x="35.7422" y="95.8594" width="91.3809" height="129.152" rx="8.12274"/>
</mask>
<rect x="35.7422" y="95.8594" width="91.3809" height="129.152" rx="8.12274" stroke="white" stroke-width="47.1119" mask="url(#path-3-inside-2_17_122)"/>
<mask id="path-4-inside-3_17_122" fill="white">
<rect x="195.742" y="95.8594" width="90.5686" height="129.152" rx="8.12274"/>
</mask>
<rect x="195.742" y="95.8594" width="90.5686" height="129.152" rx="8.12274" stroke="white" stroke-width="47.1119" mask="url(#path-4-inside-3_17_122)"/>
<line x1="159.608" y1="50.7796" x2="159.608" y2="71.0864" stroke="white" stroke-width="12.1841" stroke-linecap="round"/>
<line x1="175.08" y1="71.8733" x2="159.599" y2="71.8733" stroke="white" stroke-width="12.1841" stroke-linecap="round"/>
<path d="M421.35 74.5H391.05V53.8H475.05V74.5H444.75V160H421.35V74.5ZM600.383 105.1H580.583V129.4C580.583 131.4 580.683 133.25 580.883 134.95C581.083 136.55 581.533 137.95 582.233 139.15C582.933 140.35 583.983 141.3 585.383 142C586.883 142.6 588.833 142.9 591.233 142.9C592.433 142.9 593.983 142.8 595.883 142.6C597.883 142.3 599.383 141.7 600.383 140.8V159.55C597.883 160.45 595.283 161.05 592.583 161.35C589.883 161.65 587.233 161.8 584.633 161.8C580.833 161.8 577.333 161.4 574.133 160.6C570.933 159.8 568.133 158.55 565.733 156.85C563.333 155.05 561.433 152.75 560.033 149.95C558.733 147.15 558.083 143.75 558.083 139.75V105.1H543.683V87.1H558.083V65.5H580.583V87.1H600.383V105.1ZM680.817 147.4C677.217 152 672.667 155.55 667.167 158.05C661.667 160.55 655.967 161.8 650.067 161.8C644.467 161.8 639.167 160.9 634.167 159.1C629.267 157.3 624.967 154.75 621.267 151.45C617.667 148.05 614.817 144 612.717 139.3C610.617 134.6 609.567 129.35 609.567 123.55C609.567 117.75 610.617 112.5 612.717 107.8C614.817 103.1 617.667 99.1 621.267 95.8C624.967 92.4 629.267 89.8 634.167 88C639.167 86.2 644.467 85.3 650.067 85.3C655.267 85.3 659.967 86.2 664.167 88C668.467 89.8 672.067 92.4 674.967 95.8C677.967 99.1 680.267 103.1 681.867 107.8C683.467 112.5 684.267 117.75 684.267 123.55V130.6H632.067C632.967 134.9 634.917 138.35 637.917 140.95C640.917 143.45 644.617 144.7 649.017 144.7C652.717 144.7 655.817 143.9 658.317 142.3C660.917 140.6 663.167 138.45 665.067 135.85L680.817 147.4ZM661.767 115.3C661.867 111.5 660.617 108.25 658.017 105.55C655.417 102.85 652.067 101.5 647.967 101.5C645.467 101.5 643.267 101.9 641.367 102.7C639.467 103.5 637.817 104.55 636.417 105.85C635.117 107.05 634.067 108.5 633.267 110.2C632.567 111.8 632.167 113.5 632.067 115.3H661.767ZM747.3 110.65C746.2 109.05 744.65 107.75 742.65 106.75C740.65 105.65 738.5 105.1 736.2 105.1C730.5 105.1 726.05 106.8 722.85 110.2C719.75 113.6 718.2 118.05 718.2 123.55C718.2 129.05 719.75 133.5 722.85 136.9C726.05 140.3 730.5 142 736.2 142C738.7 142 740.85 141.45 742.65 140.35C744.45 139.25 746 137.95 747.3 136.45L762.15 152.05C758.65 155.65 754.5 158.2 749.7 159.7C745 161.1 740.5 161.8 736.2 161.8C730.6 161.8 725.3 160.9 720.3 159.1C715.4 157.3 711.1 154.75 707.4 151.45C703.8 148.05 700.95 144 698.85 139.3C696.75 134.6 695.7 129.35 695.7 123.55C695.7 117.75 696.75 112.5 698.85 107.8C700.95 103.1 703.8 99.1 707.4 95.8C711.1 92.4 715.4 89.8 720.3 88C725.3 86.2 730.6 85.3 736.2 85.3C740.5 85.3 745 86.05 749.7 87.55C754.5 88.95 758.65 91.45 762.15 95.05L747.3 110.65ZM792.813 46.6V97H793.113C793.613 95.6 794.463 94.2 795.663 92.8C796.863 91.4 798.313 90.15 800.013 89.05C801.713 87.95 803.713 87.05 806.013 86.35C808.313 85.65 810.813 85.3 813.513 85.3C819.213 85.3 823.813 86.2 827.313 88C830.813 89.7 833.513 92.1 835.413 95.2C837.413 98.3 838.763 101.95 839.463 106.15C840.163 110.35 840.513 114.9 840.513 119.8V160H818.013V124.3C818.013 122.2 817.913 120.05 817.713 117.85C817.613 115.55 817.163 113.45 816.363 111.55C815.663 109.65 814.513 108.1 812.913 106.9C811.413 105.7 809.213 105.1 806.313 105.1C803.413 105.1 801.063 105.65 799.263 106.75C797.463 107.75 796.063 109.15 795.063 110.95C794.163 112.65 793.563 114.6 793.263 116.8C792.963 119 792.813 121.3 792.813 123.7V160H770.313V46.6H792.813ZM938.631 53.8H957.981L1004.18 160H977.781L968.631 137.5H927.381L918.531 160H892.731L938.631 53.8ZM947.631 84.7L934.731 117.7H960.681L947.631 84.7ZM1014.11 87.1H1034.81V96.7H1035.11C1036.01 95.4 1037.16 94.1 1038.56 92.8C1040.06 91.4 1041.76 90.15 1043.66 89.05C1045.66 87.95 1047.81 87.05 1050.11 86.35C1052.41 85.65 1054.86 85.3 1057.46 85.3C1062.86 85.3 1067.76 86.25 1072.16 88.15C1076.56 89.95 1080.31 92.55 1083.41 95.95C1086.61 99.25 1089.06 103.2 1090.76 107.8C1092.46 112.4 1093.31 117.45 1093.31 122.95C1093.31 128.05 1092.51 132.95 1090.91 137.65C1089.41 142.25 1087.21 146.35 1084.31 149.95C1081.51 153.55 1078.06 156.45 1073.96 158.65C1069.86 160.75 1065.21 161.8 1060.01 161.8C1055.31 161.8 1050.91 161.1 1046.81 159.7C1042.81 158.2 1039.51 155.7 1036.91 152.2H1036.61V194.2H1014.11V87.1ZM1034.81 123.55C1034.81 129.05 1036.36 133.5 1039.46 136.9C1042.66 140.3 1047.11 142 1052.81 142C1058.51 142 1062.91 140.3 1066.01 136.9C1069.21 133.5 1070.81 129.05 1070.81 123.55C1070.81 118.05 1069.21 113.6 1066.01 110.2C1062.91 106.8 1058.51 105.1 1052.81 105.1C1047.11 105.1 1042.66 106.8 1039.46 110.2C1036.36 113.6 1034.81 118.05 1034.81 123.55ZM1108.59 87.1H1129.29V96.7H1129.59C1130.49 95.4 1131.64 94.1 1133.04 92.8C1134.54 91.4 1136.24 90.15 1138.14 89.05C1140.14 87.95 1142.29 87.05 1144.59 86.35C1146.89 85.65 1149.34 85.3 1151.94 85.3C1157.34 85.3 1162.24 86.25 1166.64 88.15C1171.04 89.95 1174.79 92.55 1177.89 95.95C1181.09 99.25 1183.54 103.2 1185.24 107.8C1186.94 112.4 1187.79 117.45 1187.79 122.95C1187.79 128.05 1186.99 132.95 1185.39 137.65C1183.89 142.25 1181.69 146.35 1178.79 149.95C1175.99 153.55 1172.54 156.45 1168.44 158.65C1164.34 160.75 1159.69 161.8 1154.49 161.8C1149.79 161.8 1145.39 161.1 1141.29 159.7C1137.29 158.2 1133.99 155.7 1131.39 152.2H1131.09V194.2H1108.59V87.1ZM1129.29 123.55C1129.29 129.05 1130.84 133.5 1133.94 136.9C1137.14 140.3 1141.59 142 1147.29 142C1152.99 142 1157.39 140.3 1160.49 136.9C1163.69 133.5 1165.29 129.05 1165.29 123.55C1165.29 118.05 1163.69 113.6 1160.49 110.2C1157.39 106.8 1152.99 105.1 1147.29 105.1C1141.59 105.1 1137.14 106.8 1133.94 110.2C1130.84 113.6 1129.29 118.05 1129.29 123.55ZM1248.21 53.8H1287.66C1293.16 53.8 1298.36 54.3 1303.26 55.3C1308.16 56.3 1312.41 58.05 1316.01 60.55C1319.71 62.95 1322.61 66.25 1324.71 70.45C1326.91 74.55 1328.01 79.75 1328.01 86.05C1328.01 92.25 1327.01 97.45 1325.01 101.65C1323.01 105.85 1320.26 109.2 1316.76 111.7C1313.26 114.2 1309.11 116 1304.31 117.1C1299.51 118.1 1294.31 118.6 1288.71 118.6H1271.61V160H1248.21V53.8ZM1271.61 98.8H1287.21C1289.31 98.8 1291.31 98.6 1293.21 98.2C1295.21 97.8 1296.96 97.15 1298.46 96.25C1300.06 95.25 1301.31 93.95 1302.21 92.35C1303.21 90.65 1303.71 88.55 1303.71 86.05C1303.71 83.35 1303.06 81.2 1301.76 79.6C1300.56 77.9 1298.96 76.6 1296.96 75.7C1295.06 74.8 1292.91 74.25 1290.51 74.05C1288.11 73.75 1285.81 73.6 1283.61 73.6H1271.61V98.8ZM1339.84 87.1H1362.34V98.8H1362.64C1365.04 94.3 1367.89 90.95 1371.19 88.75C1374.49 86.45 1378.64 85.3 1383.64 85.3C1384.94 85.3 1386.24 85.35 1387.54 85.45C1388.84 85.55 1390.04 85.75 1391.14 86.05V106.6C1389.54 106.1 1387.94 105.75 1386.34 105.55C1384.84 105.25 1383.24 105.1 1381.54 105.1C1377.24 105.1 1373.84 105.7 1371.34 106.9C1368.84 108.1 1366.89 109.8 1365.49 112C1364.19 114.1 1363.34 116.65 1362.94 119.65C1362.54 122.65 1362.34 125.95 1362.34 129.55V160H1339.84V87.1ZM1395.59 123.55C1395.59 117.75 1396.64 112.5 1398.74 107.8C1400.84 103.1 1403.69 99.1 1407.29 95.8C1410.99 92.4 1415.29 89.8 1420.19 88C1425.19 86.2 1430.49 85.3 1436.09 85.3C1441.69 85.3 1446.94 86.2 1451.84 88C1456.84 89.8 1461.14 92.4 1464.74 95.8C1468.44 99.1 1471.34 103.1 1473.44 107.8C1475.54 112.5 1476.59 117.75 1476.59 123.55C1476.59 129.35 1475.54 134.6 1473.44 139.3C1471.34 144 1468.44 148.05 1464.74 151.45C1461.14 154.75 1456.84 157.3 1451.84 159.1C1446.94 160.9 1441.69 161.8 1436.09 161.8C1430.49 161.8 1425.19 160.9 1420.19 159.1C1415.29 157.3 1410.99 154.75 1407.29 151.45C1403.69 148.05 1400.84 144 1398.74 139.3C1396.64 134.6 1395.59 129.35 1395.59 123.55ZM1418.09 123.55C1418.09 129.05 1419.64 133.5 1422.74 136.9C1425.94 140.3 1430.39 142 1436.09 142C1441.79 142 1446.19 140.3 1449.29 136.9C1452.49 133.5 1454.09 129.05 1454.09 123.55C1454.09 118.05 1452.49 113.6 1449.29 110.2C1446.19 106.8 1441.79 105.1 1436.09 105.1C1430.39 105.1 1425.94 106.8 1422.74 110.2C1419.64 113.6 1418.09 118.05 1418.09 123.55ZM1512.64 165.4C1512.64 170.1 1512.19 174.3 1511.29 178C1510.39 181.8 1508.89 185 1506.79 187.6C1504.69 190.3 1501.89 192.35 1498.39 193.75C1494.99 195.25 1490.74 196 1485.64 196C1483.94 196 1482.19 195.9 1480.39 195.7C1478.59 195.6 1476.84 195.3 1475.14 194.8L1476.34 174.85C1478.14 175.75 1480.09 176.2 1482.19 176.2C1484.09 176.2 1485.59 175.7 1486.69 174.7C1487.79 173.7 1488.59 172.45 1489.09 170.95C1489.59 169.45 1489.89 167.85 1489.99 166.15C1490.09 164.45 1490.14 162.9 1490.14 161.5V87.1H1512.64V165.4ZM1488.34 64.15C1488.34 60.55 1489.59 57.5 1492.09 55C1494.69 52.4 1497.79 51.1 1501.39 51.1C1504.99 51.1 1508.04 52.4 1510.54 55C1513.14 57.5 1514.44 60.55 1514.44 64.15C1514.44 67.75 1513.14 70.85 1510.54 73.45C1508.04 75.95 1504.99 77.2 1501.39 77.2C1497.79 77.2 1494.69 75.95 1492.09 73.45C1489.59 70.85 1488.34 67.75 1488.34 64.15ZM1597.81 147.4C1594.21 152 1589.66 155.55 1584.16 158.05C1578.66 160.55 1572.96 161.8 1567.06 161.8C1561.46 161.8 1556.16 160.9 1551.16 159.1C1546.26 157.3 1541.96 154.75 1538.26 151.45C1534.66 148.05 1531.81 144 1529.71 139.3C1527.61 134.6 1526.56 129.35 1526.56 123.55C1526.56 117.75 1527.61 112.5 1529.71 107.8C1531.81 103.1 1534.66 99.1 1538.26 95.8C1541.96 92.4 1546.26 89.8 1551.16 88C1556.16 86.2 1561.46 85.3 1567.06 85.3C1572.26 85.3 1576.96 86.2 1581.16 88C1585.46 89.8 1589.06 92.4 1591.96 95.8C1594.96 99.1 1597.26 103.1 1598.86 107.8C1600.46 112.5 1601.26 117.75 1601.26 123.55V130.6H1549.06C1549.96 134.9 1551.91 138.35 1554.91 140.95C1557.91 143.45 1561.61 144.7 1566.01 144.7C1569.71 144.7 1572.81 143.9 1575.31 142.3C1577.91 140.6 1580.16 138.45 1582.06 135.85L1597.81 147.4ZM1578.76 115.3C1578.86 111.5 1577.61 108.25 1575.01 105.55C1572.41 102.85 1569.06 101.5 1564.96 101.5C1562.46 101.5 1560.26 101.9 1558.36 102.7C1556.46 103.5 1554.81 104.55 1553.41 105.85C1552.11 107.05 1551.06 108.5 1550.26 110.2C1549.56 111.8 1549.16 113.5 1549.06 115.3H1578.76ZM1664.29 110.65C1663.19 109.05 1661.64 107.75 1659.64 106.75C1657.64 105.65 1655.49 105.1 1653.19 105.1C1647.49 105.1 1643.04 106.8 1639.84 110.2C1636.74 113.6 1635.19 118.05 1635.19 123.55C1635.19 129.05 1636.74 133.5 1639.84 136.9C1643.04 140.3 1647.49 142 1653.19 142C1655.69 142 1657.84 141.45 1659.64 140.35C1661.44 139.25 1662.99 137.95 1664.29 136.45L1679.14 152.05C1675.64 155.65 1671.49 158.2 1666.69 159.7C1661.99 161.1 1657.49 161.8 1653.19 161.8C1647.59 161.8 1642.29 160.9 1637.29 159.1C1632.39 157.3 1628.09 154.75 1624.39 151.45C1620.79 148.05 1617.94 144 1615.84 139.3C1613.74 134.6 1612.69 129.35 1612.69 123.55C1612.69 117.75 1613.74 112.5 1615.84 107.8C1617.94 103.1 1620.79 99.1 1624.39 95.8C1628.09 92.4 1632.39 89.8 1637.29 88C1642.29 86.2 1647.59 85.3 1653.19 85.3C1657.49 85.3 1661.99 86.05 1666.69 87.55C1671.49 88.95 1675.64 91.45 1679.14 95.05L1664.29 110.65ZM1736.96 105.1H1717.16V129.4C1717.16 131.4 1717.26 133.25 1717.46 134.95C1717.66 136.55 1718.11 137.95 1718.81 139.15C1719.51 140.35 1720.56 141.3 1721.96 142C1723.46 142.6 1725.41 142.9 1727.81 142.9C1729.01 142.9 1730.56 142.8 1732.46 142.6C1734.46 142.3 1735.96 141.7 1736.96 140.8V159.55C1734.46 160.45 1731.86 161.05 1729.16 161.35C1726.46 161.65 1723.81 161.8 1721.21 161.8C1717.41 161.8 1713.91 161.4 1710.71 160.6C1707.51 159.8 1704.71 158.55 1702.31 156.85C1699.91 155.05 1698.01 152.75 1696.61 149.95C1695.31 147.15 1694.66 143.75 1694.66 139.75V105.1H1680.26V87.1H1694.66V65.5H1717.16V87.1H1736.96V105.1Z" fill="white"/>
<path d="M520.683 124.9H498.183V53.8H520.683V124.9ZM495.633 147.1C495.633 145.2 495.983 143.4 496.683 141.7C497.383 140 498.333 138.55 499.533 137.35C500.833 136.05 502.333 135.05 504.033 134.35C505.733 133.65 507.533 133.3 509.433 133.3C511.333 133.3 513.133 133.65 514.833 134.35C516.533 135.05 517.983 136.05 519.183 137.35C520.483 138.55 521.483 140 522.183 141.7C522.883 143.4 523.233 145.2 523.233 147.1C523.233 149 522.883 150.8 522.183 152.5C521.483 154.2 520.483 155.7 519.183 157C517.983 158.2 516.533 159.15 514.833 159.85C513.133 160.55 511.333 160.9 509.433 160.9C507.533 160.9 505.733 160.55 504.033 159.85C502.333 159.15 500.833 158.2 499.533 157C498.333 155.7 497.383 154.2 496.683 152.5C495.983 150.8 495.633 149 495.633 147.1Z" fill="#E5A894"/>
</svg>
