<svg width="80" height="40" viewBox="0 0 80 40" fill="none" xmlns="http://www.w3.org/2000/svg">
<path d="M2.96027 24.903H5.78343L8.46936 12.4145C10.1358 12.9831 11.2729 13.5124 12.1747 13.5124C12.8805 13.5124 14.1941 13.1399 14.1941 11.5519C14.1941 11.1794 14.1353 10.7481 13.9784 10.258C13.4491 10.4736 12.6256 10.5324 11.7238 10.5324C9.80248 10.5324 7.4891 10.2188 6.68528 10.2188C1.84281 10.2188 0 12.7086 0 15.3161C0 16.7277 0.745002 17.2178 2.09777 17.2178C2.07816 17.0414 1.82329 16.8845 1.82329 15.8847C1.82329 12.6498 3.19567 11.6892 4.99936 11.6892C5.25422 11.6892 5.50909 11.7088 5.78357 11.748L2.96027 24.903ZM10.567 15.1004L9.23379 21.3936C9.13577 21.8641 9.07695 22.2954 9.07695 22.6679C9.07695 24.3147 9.9984 25.0205 11.1747 25.0205C12.2334 25.0205 14.1743 24.5892 15.2918 21.3936H14.4684C14.1743 22.3739 13.4685 23.1189 12.7039 23.1189C12.1549 23.1189 11.9001 22.9424 11.9001 22.3935C11.9001 22.217 11.9197 22.021 11.9785 21.7661L13.3901 15.1003L10.567 15.1004Z" fill="#00CC66"/>
<path d="M16.3907 12.3922L15.8025 15.0977H15.1555L14.9987 15.8819H15.6457L14.4693 21.3909C14.3713 21.8614 14.3125 22.2927 14.3125 22.6652C14.3125 24.3121 15.2339 25.0178 16.4103 25.0178C17.469 25.0178 19.4099 24.5865 20.5273 21.3909H19.7039C19.4098 22.3712 18.704 23.1162 17.9394 23.1162C17.3905 23.1162 17.1356 22.9397 17.1356 22.3908C17.1356 22.2143 17.1552 22.0183 17.214 21.7634L18.4688 15.8818H19.6451L19.8019 15.0976H18.6256L19.2922 12L16.3907 12.3922Z" fill="#00CC66"/>
<path d="M22.3625 21.7248C22.3625 21.4896 22.3821 21.2151 22.4017 20.9406C24.7544 20.8034 26.911 19.0585 26.911 16.804C26.911 15.8237 26.4992 14.9219 24.7544 14.9219C20.7353 14.9219 19.4609 19.6466 19.4609 21.9014C19.4609 24.1168 20.6765 25.0187 22.5194 25.0187C25.1269 25.0187 26.7933 23.1954 27.9106 21.3917H27.244C26.2638 22.5092 25.3227 23.3719 23.7739 23.3719C22.8329 23.3719 22.3625 23.058 22.3625 21.7248ZM25.4013 16.7647C25.4013 18.3919 24.0682 19.9015 22.5586 19.9995C22.9507 18.0586 23.9113 15.9609 24.9112 15.9609C25.2837 15.9609 25.4013 16.2745 25.4013 16.7647Z" fill="#00CC66"/>
<path d="M32.7327 17.9215C32.968 18.0783 33.2032 18.1567 33.4189 18.1567C33.9874 18.1567 34.458 17.6862 34.458 16.7256C34.458 15.8237 34.0267 14.9219 32.2818 14.9219C28.3019 14.9219 27.0078 19.6271 27.0078 21.9014C27.0078 24.1168 28.2233 25.0187 30.0662 25.0187C32.6737 25.0187 34.3402 23.1954 35.4575 21.3917H34.7909C33.8106 22.5092 32.8696 23.3719 31.3208 23.3719C30.3797 23.3719 29.9092 23.0582 29.9092 21.725C29.9092 19.5488 31.1836 15.9612 32.4187 15.9612C32.7912 15.9612 32.9676 16.2749 32.9676 16.765C32.9676 17.0983 32.8895 17.4902 32.7327 17.9215Z" fill="#00CC66"/>
<path d="M40.4304 17.7984C40.4304 19.0531 39.5482 21.4645 39.5482 22.7975C39.5482 23.915 40.0187 25.0129 41.5283 25.0129C42.5674 25.0129 43.5084 24.4051 43.6849 22.9935C43.5672 23.0719 43.3712 23.1112 43.0379 23.1112C42.4497 23.1112 42.2537 22.7779 42.2537 22.2877C42.2537 21.1898 43.1947 18.8177 43.1947 17.2298C43.1947 15.6613 42.2733 15.0144 41.0186 15.0144C40.4108 15.0144 39.5678 15.1712 38.7247 16.0927L39.7834 11.1719L36.8818 11.564L34.0391 24.8955H36.8622L38.2542 18.367C38.5483 17.4847 39.0776 16.7985 39.7246 16.7985C40.1951 16.7985 40.4304 17.1514 40.4304 17.7984Z" fill="#00CC66"/>
<path d="M55.7202 10.2345C55.4654 10.2149 55.2105 10.1953 54.936 10.1953C51.662 10.1953 48.0547 12.6852 48.0547 15.2927C48.0547 16.7043 48.7997 17.1944 50.1525 17.1944C50.1328 17.0179 49.878 16.8611 49.878 15.8612C49.878 13.7635 50.9171 12.2931 52.6227 11.5873L49.78 24.899H52.6032L55.7202 10.2345Z" fill="#00CC66"/>
<path d="M60.9304 17.7996C60.9304 19.0543 60.0482 21.4657 60.0482 22.7987C60.0482 23.9162 60.656 25.0141 62.3616 25.0141C63.4007 25.0141 64.9103 24.6024 66.0082 21.3872H65.1847C64.7534 22.4066 64.4005 23.1124 63.5379 23.1124C62.9497 23.1124 62.7537 22.7791 62.7537 22.289C62.7537 21.1911 63.6947 18.8189 63.6947 17.231C63.6947 15.6626 62.7733 15.0156 61.5186 15.0156C60.9108 15.0156 60.0482 15.1725 59.2247 16.1135L59.4404 15.094H56.6172L54.5391 24.8967H57.3622L58.6954 18.6035C58.9895 17.6233 59.5188 16.7998 60.2246 16.7998C60.6951 16.7998 60.9304 17.1526 60.9304 17.7996Z" fill="#00CC66"/>
<path d="M72.6999 13.1399C72.7391 12.9047 72.7587 12.6498 72.7587 12.3361C72.7587 11.0618 71.6412 10.2188 70.4453 10.2188C69.1513 10.2188 67.4653 10.7481 66.8772 13.5516L64.5049 24.7461C62.6424 25.3146 61.1328 25.8832 61.1328 27.6868C61.1328 28.9612 62.2503 29.8042 63.4462 29.8042C64.7402 29.8042 66.3674 29.2749 66.9555 26.4714L69.2102 15.8845H70.6609L70.7982 15.1003H69.367L69.7003 13.5515C69.9748 12.238 70.6413 11.9439 71.0727 11.9439C71.4648 11.9439 71.8177 12.1595 71.8177 12.6105C71.8177 12.7869 71.7981 12.9437 71.7785 13.1398L72.6999 13.1399ZM62.2113 27.4124C62.2113 26.3537 63.1327 25.8047 64.3679 25.393L64.113 26.5301C63.8581 27.6868 63.4072 28.0593 62.9955 28.0593C62.5642 28.0593 62.2113 27.6869 62.2113 27.4124Z" fill="#00CC66"/>
<path d="M75.4926 14.9221C71.4539 14.9221 70.1797 19.6274 70.1797 21.8818C70.1797 24.1168 71.4932 24.9794 73.3165 24.9794C75.7868 24.9794 77.7474 22.6072 77.9824 18.8429C79.0215 18.2744 79.6097 17.0588 80.0018 16.2158H79.3744C79.1588 16.5883 78.6686 17.4313 77.9824 17.5686C77.8648 15.8237 77.0414 14.9221 75.4926 14.9221ZM74.1006 23.2152C73.3556 23.2152 73.1007 22.9211 73.1007 21.6272C73.1007 19.7059 74.2575 16.1182 75.6494 16.1182C76.1396 16.1182 76.3552 16.4123 76.3944 17.2357C76.0611 17.3926 75.8455 17.7259 75.8455 18.2552C75.8455 18.7453 76.0023 19.0198 76.316 19.1374C76.0219 21.4509 75.0613 23.2152 74.1006 23.2152Z" fill="#00CC66"/>
</svg>
